<svg width="83" height="81" viewBox="0 0 83 81" fill="none" xmlns="http://www.w3.org/2000/svg">
<path d="M28.2005 30.75H29.2543C26.0232 33.991 24.2084 38.3811 24.2084 42.9583C24.2084 47.5444 26.0302 51.9426 29.273 55.1854C30.2074 56.1198 31.2377 56.9362 32.3408 57.625H21.9167V30.75H28.2005ZM41.5001 25.6667C38.6007 25.6667 35.7764 26.3948 33.2716 27.7499L37.6466 23.375H45.3344L49.7575 27.7657C47.2456 26.4005 44.4107 25.6667 41.5001 25.6667ZM58.7918 42.9583C58.7918 42.1591 58.7364 41.3656 58.6279 40.5829C58.6547 40.5832 58.6816 40.5833 58.7084 40.5833C59.5236 40.5833 60.325 40.4499 61.0834 40.1951V57.625H50.6594C51.7625 56.9362 52.7928 56.1198 53.7271 55.1854C56.97 51.9426 58.7918 47.5444 58.7918 42.9583ZM61.0834 32.2198V32.4903C60.9728 32.0764 60.7549 31.6949 60.4467 31.3867C60.1385 31.0785 59.757 30.8606 59.3431 30.75H59.6137C59.9452 30.8764 60.2499 31.072 60.5057 31.3278C60.7614 31.5835 60.957 31.8882 61.0834 32.2198ZM56.6339 34.5935C56.5547 34.4502 56.4734 34.3079 56.39 34.1667C56.2442 33.8422 56.1668 33.4876 56.1668 33.125C56.1668 32.4509 56.4345 31.8044 56.9112 31.3278C57.167 31.072 57.4716 30.8764 57.8032 30.75H58.0737C57.6599 30.8606 57.2783 31.0785 56.9701 31.3867C56.5091 31.8477 56.2501 32.473 56.2501 33.125C56.2501 33.777 56.5091 34.4023 56.9701 34.8633C57.4311 35.3243 58.0564 35.5833 58.7084 35.5833C59.3604 35.5833 59.9857 35.3243 60.4467 34.8633C60.7549 34.5551 60.9728 34.1736 61.0834 33.7597V34.0302C60.957 34.3618 60.7614 34.6665 60.5056 34.9222C60.029 35.3989 59.3825 35.6667 58.7084 35.6667C58.0343 35.6667 57.3878 35.3989 56.9112 34.9222C56.809 34.82 56.7163 34.71 56.6339 34.5935Z" fill="#22292F" stroke="#3D4852" stroke-width="10"/>
<path d="M43.1794 44.6378C42.734 45.0832 42.1299 45.3334 41.5 45.3334C40.8701 45.3334 40.266 45.0832 39.8206 44.6378C39.3752 44.1924 39.125 43.5883 39.125 42.9584C39.125 42.3285 39.3752 41.7244 39.8206 41.279C40.266 40.8336 40.8701 40.5834 41.5 40.5834C42.1299 40.5834 42.734 40.8336 43.1794 41.279C43.6248 41.7244 43.875 42.3285 43.875 42.9584C43.875 43.5883 43.6248 44.1924 43.1794 44.6378Z" stroke="#3D4852" stroke-width="10"/>
<rect x="5" y="5" width="73" height="71" stroke="#3D4852" stroke-width="10"/>
</svg>
