<svg width="83" height="81" viewBox="0 0 83 81" fill="none" xmlns="http://www.w3.org/2000/svg">
<path d="M28.2004 29.75H29.2542C26.0231 32.991 24.2083 37.3811 24.2083 41.9583C24.2083 46.5444 26.0301 50.9426 29.2729 54.1854C30.2073 55.1198 31.2376 55.9362 32.3407 56.625H21.9166V29.75H28.2004ZM41.5 24.6667C38.6006 24.6667 35.7762 25.3948 33.2715 26.7499L37.6464 22.375H45.3342L49.7574 26.7657C47.2455 25.4005 44.4106 24.6667 41.5 24.6667ZM58.7916 41.9583C58.7916 41.1591 58.7363 40.3656 58.6278 39.5829C58.6546 39.5832 58.6814 39.5833 58.7083 39.5833C59.5235 39.5833 60.3249 39.4499 61.0833 39.1951V56.625H50.6593C51.7623 55.9362 52.7926 55.1198 53.727 54.1854C56.9698 50.9426 58.7916 46.5444 58.7916 41.9583ZM61.0833 31.2198V31.4903C60.9727 31.0764 60.7548 30.6949 60.4466 30.3867C60.1384 30.0785 59.7569 29.8606 59.343 29.75H59.6135C59.9451 29.8764 60.2498 30.072 60.5055 30.3278C60.7613 30.5835 60.9569 30.8882 61.0833 31.2198ZM56.6338 33.5935C56.5546 33.4502 56.4732 33.3079 56.3899 33.1667C56.2441 32.8422 56.1666 32.4876 56.1666 32.125C56.1666 31.4509 56.4344 30.8044 56.9111 30.3278C57.1668 30.072 57.4715 29.8764 57.8031 29.75H58.0736C57.6597 29.8606 57.2782 30.0785 56.97 30.3867C56.509 30.8477 56.25 31.473 56.25 32.125C56.25 32.777 56.509 33.4023 56.97 33.8633C57.431 34.3243 58.0563 34.5833 58.7083 34.5833C59.3603 34.5833 59.9856 34.3243 60.4466 33.8633C60.7548 33.5551 60.9727 33.1736 61.0833 32.7597V33.0302C60.9569 33.3618 60.7613 33.6665 60.5055 33.9222C60.0289 34.3989 59.3824 34.6667 58.7083 34.6667C58.0342 34.6667 57.3877 34.3989 56.9111 33.9222C56.8088 33.82 56.7162 33.71 56.6338 33.5935Z" fill="black" stroke="#2B2B2B" stroke-width="10"/>
<path d="M43.1794 43.6377C42.734 44.0831 42.1299 44.3333 41.5 44.3333C40.8701 44.3333 40.266 44.0831 39.8206 43.6377C39.3752 43.1923 39.125 42.5882 39.125 41.9583C39.125 41.3285 39.3752 40.7244 39.8206 40.279C40.266 39.8336 40.8701 39.5833 41.5 39.5833C42.1299 39.5833 42.734 39.8336 43.1794 40.279C43.6248 40.7244 43.875 41.3285 43.875 41.9583C43.875 42.5882 43.6248 43.1923 43.1794 43.6377Z" fill="black" stroke="#2B2B2B" stroke-width="10"/>
<rect x="5" y="5" width="73" height="71" stroke="#2B2B2B" stroke-width="10"/>
</svg>
